# xmcd
#
# Track frame offsets:
#	150
#	12487
#	26550
#	39887
#	52937
#	63537
#	73775
#	84312
#	98025
#	108375
#	121062
#	131200
#	142800
#	153075
#	164987
#	175900
#
# Disc length: 2483 seconds
#
# Revision: 1
# Processed by: cddbd v1.5.2PL0 Copyright (c) Steve Scherf et al.
# Submitted via: audiograbber 1.83.01
#
DISCID=d109b110
DTITLE=David Houston - Almost Persuaded
DYEAR=1966
DGENRE=Oldies
TTITLE0=Already It's Heaven
TTITLE1=Where Love Used To Live
TTITLE2=Almost Persuaded
TTITLE3=My Elusive Dreams
TTITLE4=I Do My Swinging At Home
TTITLE5=Have A Little Faith
TTITLE6=Baby, Baby (I Know You're A Lady)
TTITLE7=My Woman's Good To Me
TTITLE8=With One Exception
TTITLE9=Mountain Of Love
TTITLE10=Livin' In A House Full Of Love
TTITLE11=A Loser's Cathedral
TTITLE12=You Mean The World To Me
TTITLE13=I'm Down To My Last 'I Love You'
TTITLE14=Wonders Of The Wine
TTITLE15=A Woman Always Knows
EXTD=1966 \n\nCollectables Records CD
EXTT0=
EXTT1=
EXTT2=
EXTT3=
EXTT4=
EXTT5=
EXTT6=
EXTT7=
EXTT8=
EXTT9=
EXTT10=
EXTT11=
EXTT12=
EXTT13=
EXTT14=
EXTT15=
PLAYORDER=
